<svg xmlns="http://www.w3.org/2000/svg" xmlns:xlink="http://www.w3.org/1999/xlink" viewBox="0 0 1918.69 906.48"><defs><style>.cls-1{fill:url(#Degradado_sin_nombre_117);}.cls-2{fill:url(#Degradado_sin_nombre_41);}.cls-3{fill:url(#Degradado_sin_nombre_68);}.cls-4{fill:url(#Degradado_sin_nombre_41-2);}.cls-5{fill:url(#Degradado_sin_nombre_41-3);}</style><linearGradient id="Degradado_sin_nombre_117" x1="3.77" y1="103.83" x2="357.39" y2="716.3" gradientUnits="userSpaceOnUse"><stop offset="0" stop-color="#3ffff1"/><stop offset="0.27" stop-color="#26ddd0"/><stop offset="0.28" stop-color="#25dbd0"/><stop offset="0.59" stop-color="#0a8fc2"/><stop offset="0.74" stop-color="#0071bc"/><stop offset="1" stop-color="#00679a"/></linearGradient><linearGradient id="Degradado_sin_nombre_41" x1="562.87" y1="640.52" x2="756.48" y2="871.25" gradientUnits="userSpaceOnUse"><stop offset="0" stop-color="#26ddd0"/><stop offset="0.38" stop-color="#12a4c6"/><stop offset="0.75" stop-color="#0071bc"/><stop offset="0.83" stop-color="#006fb5"/><stop offset="0.96" stop-color="#0069a2"/><stop offset="1" stop-color="#00679a"/></linearGradient><linearGradient id="Degradado_sin_nombre_68" x1="-1361.9" y1="-1792.91" x2="-1185.53" y2="-1582.72" gradientTransform="matrix(0, -1, -1, 0, 191.94, -1203.88)" gradientUnits="userSpaceOnUse"><stop offset="0" stop-color="#3ffff1"/><stop offset="0.27" stop-color="#26ddd0"/><stop offset="0.39" stop-color="#24d8cf"/><stop offset="0.54" stop-color="#1fcacc"/><stop offset="0.7" stop-color="#17b3c8"/><stop offset="0.86" stop-color="#0c92c2"/><stop offset="1" stop-color="#0071bc"/></linearGradient><linearGradient id="Degradado_sin_nombre_41-2" x1="-1601.09" y1="302.21" x2="-1263.8" y2="242.73" gradientTransform="matrix(-1, 0, 0, 1, 328.78, 0)" xlink:href="#Degradado_sin_nombre_41"/><linearGradient id="Degradado_sin_nombre_41-3" x1="-1533.4" y1="460.38" x2="-1502.52" y2="635.49" gradientTransform="matrix(-1, 0, 0, 1, 328.78, 0)" xlink:href="#Degradado_sin_nombre_41"/></defs><g id="Layer_2" data-name="Layer 2"><g id="circular_4" data-name="circular 4"><path class="cls-1" d="M153.73,71A352.56,352.56,0,0,0,0,106V744a352.56,352.56,0,0,0,153.73,35c195.52,0,354-158.51,354-354S349.25,71,153.73,71Z"/><circle class="cls-2" cx="659.68" cy="755.88" r="150.6"/></g><g id="circular_3" data-name="circular 3"><circle class="cls-3" cx="1853.88" cy="48.12" r="48.12" transform="translate(508.96 1324.99) rotate(-45)"/><path class="cls-4" d="M1767.19,96.25a177.15,177.15,0,0,1,151.5,85.18V365.61a177.28,177.28,0,1,1-151.5-269.36Z"/><path class="cls-5" d="M1825.33,465a88.92,88.92,0,0,1,93.36,23.32V610.05a88.9,88.9,0,1,1-93.36-145Z"/></g></g></svg>