<svg id="Layer_1" data-name="Layer 1" xmlns="http://www.w3.org/2000/svg" xmlns:xlink="http://www.w3.org/1999/xlink" viewBox="0 0 1918.69 1909.74"><defs><style>.cls-1{fill:url(#linear-gradient);}.cls-2{fill:url(#linear-gradient-2);}.cls-3{fill:url(#linear-gradient-3);}.cls-4{fill:url(#linear-gradient-4);}.cls-5{fill:url(#linear-gradient-5);}.cls-6{fill:url(#Degradado_sin_nombre_66);}.cls-7{fill:url(#Nueva_muestra_de_degradado_2);}.cls-8{fill:url(#Nueva_muestra_de_degradado_2-2);}.cls-9{fill:url(#Nueva_muestra_de_degradado_2-3);}.cls-10{fill:url(#linear-gradient-6);}.cls-11{fill:url(#linear-gradient-7);}.cls-12{fill:url(#linear-gradient-8);}.cls-13{fill:url(#linear-gradient-9);}</style><linearGradient id="linear-gradient" x1="4.41" y1="1900.6" x2="358.01" y2="1288.16" gradientTransform="matrix(1, 0, 0, -1, 0, 1999.52)" gradientUnits="userSpaceOnUse"><stop offset="0" stop-color="#3ffff1"/><stop offset="0.27" stop-color="#26ddd0"/><stop offset="0.28" stop-color="#25dbd0"/><stop offset="0.59" stop-color="#0a8fc2"/><stop offset="0.74" stop-color="#0071bc"/><stop offset="1" stop-color="#00679a"/></linearGradient><linearGradient id="linear-gradient-2" x1="563.53" y1="1363.92" x2="757.14" y2="1133.18" gradientTransform="matrix(1, 0, 0, -1, -0.66, 1956.31)" gradientUnits="userSpaceOnUse"><stop offset="0" stop-color="#26ddd0"/><stop offset="0.38" stop-color="#12a4c6"/><stop offset="0.75" stop-color="#0071bc"/><stop offset="0.83" stop-color="#006fb5"/><stop offset="0.96" stop-color="#0069a2"/><stop offset="1" stop-color="#00679a"/></linearGradient><linearGradient id="linear-gradient-3" x1="149.87" y1="3123.3" x2="326.24" y2="2913.11" gradientTransform="translate(-78.34 2347.7) rotate(-135)" gradientUnits="userSpaceOnUse"><stop offset="0" stop-color="#3ffff1"/><stop offset="0.27" stop-color="#26ddd0"/><stop offset="0.39" stop-color="#24d8cf"/><stop offset="0.54" stop-color="#1fcacc"/><stop offset="0.7" stop-color="#17b3c8"/><stop offset="0.86" stop-color="#0c92c2"/><stop offset="1" stop-color="#0071bc"/></linearGradient><linearGradient id="linear-gradient-4" x1="-294.43" y1="1654.08" x2="42.87" y2="1713.56" gradientTransform="translate(1636.09 1999.52) rotate(180)" xlink:href="#linear-gradient-2"/><linearGradient id="linear-gradient-5" x1="-226.71" y1="1495.94" x2="-195.82" y2="1320.75" gradientTransform="translate(1636.09 1999.52) rotate(180)" xlink:href="#linear-gradient-2"/><linearGradient id="Degradado_sin_nombre_66" x1="37.32" y1="1076.49" x2="349.8" y2="1448.89" gradientTransform="translate(993.23 219.19) rotate(45)" gradientUnits="userSpaceOnUse"><stop offset="0" stop-color="#3ffff1"/><stop offset="0.27" stop-color="#26ddd0"/><stop offset="0.35" stop-color="#24d8cf"/><stop offset="0.44" stop-color="#1fcacc"/><stop offset="0.55" stop-color="#17b3c8"/><stop offset="0.65" stop-color="#0c92c2"/><stop offset="0.74" stop-color="#0071bc"/><stop offset="1" stop-color="#00679a"/></linearGradient><linearGradient id="Nueva_muestra_de_degradado_2" x1="38.15" y1="1075.8" x2="350.6" y2="1448.17" gradientTransform="translate(868.51 257.65) rotate(45)" gradientUnits="userSpaceOnUse"><stop offset="0" stop-color="#3ffff1"/><stop offset="0.27" stop-color="#26ddd0"/><stop offset="0.37" stop-color="#24d8cf"/><stop offset="0.49" stop-color="#1fcacc"/><stop offset="0.62" stop-color="#17b3c8"/><stop offset="0.75" stop-color="#0c92c2"/><stop offset="0.86" stop-color="#0071bc"/><stop offset="1" stop-color="#00679a"/></linearGradient><linearGradient id="Nueva_muestra_de_degradado_2-2" x1="128.08" y1="1000.33" x2="440.56" y2="1372.73" gradientTransform="translate(261.55 -21.3) rotate(13.28)" xlink:href="#Nueva_muestra_de_degradado_2"/><linearGradient id="Nueva_muestra_de_degradado_2-3" x1="1726.19" y1="856.09" x2="1921.58" y2="1392.94" gradientTransform="matrix(1, 0, 0, 1, 0, 0)" xlink:href="#Nueva_muestra_de_degradado_2"/><linearGradient id="linear-gradient-6" x1="1542.14" y1="646.16" x2="1638.95" y2="530.79" xlink:href="#linear-gradient-2"/><linearGradient id="linear-gradient-7" x1="650.27" y1="290.86" x2="987.57" y2="350.34" gradientTransform="translate(-660.79 1456.12)" xlink:href="#linear-gradient-2"/><linearGradient id="linear-gradient-8" x1="717.99" y1="132.72" x2="748.88" y2="-42.47" gradientTransform="translate(-660.79 1456.12)" xlink:href="#linear-gradient-2"/><linearGradient id="linear-gradient-9" x1="1742.41" y1="487.11" x2="1936.03" y2="256.37" gradientTransform="matrix(1, 0, 0, -1, 0, 1999.52)" xlink:href="#linear-gradient-2"/></defs><path class="cls-1" d="M154.39,66.09a352.54,352.54,0,0,0-153.73,35v638a352.54,352.54,0,0,0,153.73,35c195.52,0,354-158.51,354-354S349.91,66.09,154.39,66.09Z" transform="translate(-0.66 -43.21)"/><circle class="cls-2" cx="659.68" cy="707.76" r="150.6"/><g id="circular_3" data-name="circular 3"><circle class="cls-3" cx="1853.88" cy="48.12" r="48.12"/><path class="cls-4" d="M1767.84,139.46a177.14,177.14,0,0,1,151.5,85.18V408.82a177.28,177.28,0,1,1-151.5-269.36Z" transform="translate(-0.66 -43.21)"/><path class="cls-5" d="M1826,508.21a88.91,88.91,0,0,1,93.36,23.32V653.26a88.9,88.9,0,1,1-93.36-145Z" transform="translate(-0.66 -43.21)"/></g><circle class="cls-6" cx="232.02" cy="1308.53" r="85.26" transform="translate(-857.97 504.11) rotate(-45)"/><circle class="cls-7" cx="123.24" cy="1177.21" r="60.76" transform="translate(-796.97 388.73) rotate(-45)"/><circle class="cls-8" cx="222.22" cy="1112.53" r="38.22" transform="translate(-250.32 37.6) rotate(-13.28)"/><path class="cls-9" d="M1919.34,805.85c-1,0-2,0-2.95,0-162.37,0-294,131.62-294,294s131.62,294,294,294c1,0,2,0,2.95,0Z" transform="translate(-0.66 -43.21)"/><circle class="cls-10" cx="1589.89" cy="1367.83" r="75.3"/><path class="cls-11" d="M152.16,1953A177.16,177.16,0,0,1,.66,1867.78V1683.6A177.28,177.28,0,1,1,152.16,1953Z" transform="translate(-0.66 -43.21)"/><path class="cls-12" d="M94,1584.21A88.93,88.93,0,0,1,.66,1560.89V1439.16a88.9,88.9,0,1,1,93.36,145Z" transform="translate(-0.66 -43.21)"/><path class="cls-13" d="M1842.46,1474.46a150.6,150.6,0,1,0,76.88,280.11v-259A149.85,149.85,0,0,0,1842.46,1474.46Z" transform="translate(-0.66 -43.21)"/></svg>