<svg xmlns="http://www.w3.org/2000/svg" viewBox="0 0 235 212.73"><g id="Layer_2" data-name="Layer 2"><g id="circular_3" data-name="circular 3"><g id="wraPPA"><path d="M0,109.35v-6c3-4.27,5.73-8.84,9.19-12.73,5.3-6,11.14-11.46,16.72-17.19,20.22-20.75,40.35-41.6,60.72-62.2a49.84,49.84,0,0,1,12-8.82c12-6.37,23.69.43,24.35,14,.31,6.32.11,12.66.12,19,0,8.11,0,16.22,0,24.9H235v92H123.05c0,15.13.25,29.3-.07,43.46s-12.31,21-24.86,14.38a29.17,29.17,0,0,1-6.22-4.14c-8.92-8.25-18-16.35-26.48-25.06q-27.9-28.65-55.17-57.91C6.36,119,3.39,114,0,109.35Z"/></g></g></g></svg>